# xmcd CD database file
#
# Track frame offsets:
#	150
#	32983
#	67286
#	103336
#	122976
#	138205
#	167446
#	184344
#
# Disc length: 2661 seconds
#
# Revision: 0
# Processed by: cddbd v1.5.2PL0 Copyright (c) Steve Scherf et al.
# Submitted via: CDex 1.70beta2
#
DISCID=790a6308
DTITLE=Lubomyr Melnyk - Fallen Trees
DYEAR=2018
DGENRE=Jazz
TTITLE0=Requiem for a Fallen Tree
TTITLE1=Son of Parasol
TTITLE2=Barcarolle
TTITLE3=Fallen Trees - Part 1: Peamble
TTITLE4=Fallen Trees - Part 2: Existence
TTITLE5=Fallen Trees - Part 3: Apparition
TTITLE6=Fallen Trees - Part 4: They Are Down
TTITLE7=Fallen Trees - Part 5: Not Forgotten
EXTD=YEAR: 2018
EXTT0=
EXTT1=
EXTT2=
EXTT3=
EXTT4=
EXTT5=
EXTT6=
EXTT7=
PLAYORDER=
